<?xml version="1.0" standalone="no"?>
<!DOCTYPE svg PUBLIC "-//W3C//DTD SVG 20010904//EN"
 "http://www.w3.org/TR/2001/REC-SVG-20010904/DTD/svg10.dtd">
<svg version="1.0" xmlns="http://www.w3.org/2000/svg"
 width="300.000000pt" height="300.000000pt" viewBox="0 0 300.000000 300.000000"
 preserveAspectRatio="xMidYMid meet">

<g transform="translate(0.000000,300.000000) scale(0.100000,-0.100000)"
fill="#ffffff" stroke="none">
<path d="M1287 2914 c-314 -48 -578 -190 -812 -435 -404 -423 -515 -1002 -294
-1523 130 -305 386 -582 679 -735 119 -61 275 -114 405 -137 131 -22 348 -22
475 0 590 105 1076 599 1175 1194 27 163 17 400 -23 553 -118 447 -432 811
-855 993 -220 95 -504 129 -750 90z m503 -42 c420 -97 774 -378 969 -767 53
-105 108 -260 118 -332 l6 -43 -225 0 -225 0 -27 84 c-53 163 -169 331 -299
435 -82 65 -208 131 -317 167 -80 26 -96 28 -260 28 -191 1 -236 -7 -374 -64
-245 -102 -459 -344 -537 -607 l-12 -43 -244 0 -245 0 7 43 c14 82 68 233 121
337 216 421 607 709 1059 779 99 16 387 5 485 -17z m-254 -733 c41 -45 15
-145 -46 -176 -35 -17 -79 2 -96 43 -37 89 82 200 142 133z m329 -161 c241
-190 371 -428 350 -640 -8 -76 -46 -165 -94 -220 -17 -20 -31 -38 -31 -42 0
-3 42 -6 93 -6 85 -1 90 -2 67 -15 -50 -29 -157 -57 -245 -65 -49 -4 -115 -15
-145 -24 -30 -9 -100 -19 -155 -22 -190 -12 -374 27 -567 118 l-107 51 -66
-57 c-36 -32 -65 -54 -65 -49 0 4 16 39 34 78 19 38 34 70 33 71 -68 37 -225
182 -287 264 -29 38 -21 32 48 -32 46 -43 124 -105 174 -138 l91 -61 46 44
c68 67 155 118 308 183 164 69 223 108 241 156 12 32 12 40 -4 73 -19 42 -61
72 -113 81 -47 9 -149 -25 -292 -97 -64 -33 -119 -59 -123 -59 -14 0 81 125
144 189 136 139 243 185 364 157 158 -38 217 -138 276 -469 27 -151 54 -239
85 -274 l24 -28 50 49 c125 123 146 316 55 507 -47 98 -119 194 -213 281 -83
79 -80 78 24 -4z m-810 -154 c8 -4 23 -20 31 -36 39 -75 -42 -161 -116 -123
-83 43 -60 165 31 165 20 0 45 -3 54 -6z m-708 -254 c5 -27 10 -30 42 -30 l36
-1 -29 -24 c-28 -22 -29 -26 -16 -49 17 -34 8 -42 -23 -21 -24 15 -27 15 -50
0 -27 -17 -42 -8 -26 15 15 25 10 40 -16 52 -35 16 -31 28 9 28 29 0 34 4 40
30 3 17 10 30 16 30 6 0 13 -13 17 -30z m2343 -11 c5 -19 11 -23 32 -21 36 4
43 -13 13 -32 -21 -14 -23 -20 -15 -42 6 -14 10 -27 10 -30 0 -10 -25 -3 -41
12 -17 15 -20 15 -45 -5 -33 -26 -38 -23 -24 13 14 38 13 41 -15 54 -36 16
-32 35 5 27 28 -6 32 -4 41 25 13 35 31 35 39 -1z m-1808 -956 c22 -20 23 -36
1 -71 -29 -47 -42 -53 -74 -36 -35 17 -36 28 -8 74 33 54 50 61 81 33z m1245
-24 c-3 -12 3 -39 14 -60 10 -21 19 -43 19 -49 0 -22 -27 -7 -53 30 -16 22
-32 38 -37 35 -4 -3 -13 1 -19 9 -9 11 -5 18 21 34 44 27 62 28 55 1z m-1167
-29 c0 -6 -9 -28 -20 -49 -18 -36 -18 -51 1 -51 5 0 18 18 29 40 20 39 33 49
44 32 6 -10 -46 -105 -60 -109 -7 -2 -25 7 -40 20 l-28 25 23 51 c22 45 51 69
51 41z m1096 -64 c3 -19 13 -37 21 -40 12 -5 13 -9 3 -21 -10 -12 -15 -12 -36
2 -25 16 -25 16 -18 -10 5 -21 2 -27 -10 -27 -15 0 -66 85 -66 110 0 6 15 17
32 25 42 17 65 5 74 -39z m-962 8 c17 -6 20 -51 7 -108 -7 -36 -30 -46 -38
-16 -5 17 -11 20 -30 15 -38 -9 -45 3 -22 38 22 31 60 77 65 77 1 0 9 -3 18
-6z m830 -19 c9 -9 21 -34 28 -57 11 -36 10 -42 -7 -54 -10 -8 -31 -14 -46
-14 -21 0 -30 8 -43 34 -22 46 -20 72 6 90 28 20 43 20 62 1z m-689 -28 c11
-6 28 -10 38 -8 20 3 21 -9 6 -78 -11 -55 -18 -64 -37 -52 -10 6 -10 19 -1 60
6 29 9 55 6 58 -13 12 -45 -20 -56 -56 -13 -45 -21 -53 -39 -42 -10 6 -10 18
0 56 10 39 10 49 1 52 -7 3 -13 12 -13 20 0 12 7 14 37 8 21 -4 47 -12 58 -18z
m590 -31 c8 -25 6 -31 -17 -50 -14 -11 -28 -30 -30 -41 -6 -33 -22 -20 -40 32
-22 65 -22 72 5 83 40 16 71 8 82 -24z m-422 -3 c5 -3 6 -22 3 -42 -3 -20 -7
-47 -8 -61 -4 -31 -32 -33 -36 -2 -4 27 -22 29 -22 2 0 -22 -26 -28 -32 -8 -4
12 7 90 17 116 5 13 54 9 78 -5z m282 3 c11 -8 16 -20 12 -29 -3 -9 -2 -19 3
-22 6 -4 10 -19 10 -35 0 -22 -6 -30 -28 -38 -42 -15 -59 0 -67 60 -6 43 -5
54 11 65 23 17 35 16 59 -1z m-167 -18 c3 -14 -3 -18 -25 -19 -27 0 -27 -1 -5
-9 27 -12 29 -40 2 -40 -11 0 -20 -4 -20 -10 0 -5 11 -10 25 -10 16 0 25 -6
25 -16 0 -12 -9 -14 -42 -12 l-43 3 4 60 c2 33 5 64 8 68 9 16 68 3 71 -15z"/>
<path d="M1321 2767 c-14 -6 -34 -27 -44 -45 -17 -29 -18 -39 -8 -72 17 -58
54 -83 115 -77 145 13 139 207 -6 207 -18 0 -44 -6 -57 -13z m89 -45 c14 -11
23 -29 23 -47 0 -30 -32 -65 -59 -65 -24 0 -54 39 -54 69 0 20 8 35 22 45 29
20 41 20 68 -2z"/>
<path d="M1633 2758 c-33 -16 -57 -69 -49 -110 10 -52 46 -80 109 -86 61 -5
73 5 79 58 3 30 0 35 -19 38 -17 3 -23 -2 -23 -16 0 -47 -66 -46 -89 2 -12 25
-11 31 6 55 25 33 45 37 84 17 24 -12 35 -13 45 -5 20 16 18 23 -15 42 -32 19
-94 21 -128 5z"/>
<path d="M1822 2651 c-37 -102 -38 -107 -16 -115 24 -9 34 -7 34 7 0 6 4 18 9
26 14 22 51 -4 51 -38 0 -20 7 -31 25 -39 40 -19 39 -21 20 45 -4 16 -1 23 15
28 12 4 28 23 36 42 14 31 13 38 -1 60 -9 14 -35 33 -58 43 -85 37 -79 40
-115 -59z m108 14 c50 -26 18 -75 -35 -55 -29 11 -28 10 -15 44 11 30 12 31
50 11z"/>
<path d="M1101 2721 c-12 -8 -11 -22 8 -94 32 -116 28 -112 97 -91 73 22 77
26 61 48 -12 17 -16 17 -49 3 l-37 -15 -20 68 c-12 37 -21 73 -21 79 0 13 -20
14 -39 2z"/>
<path d="M933 2655 l-21 -15 39 -80 c21 -45 39 -85 39 -90 0 -15 12 -12 74 15
52 23 70 45 47 60 -5 3 -26 -2 -45 -12 -20 -9 -37 -15 -39 -12 -1 2 -16 33
-32 69 -37 83 -37 83 -62 65z"/>
<path d="M2053 2610 c-26 -11 -53 -59 -53 -95 0 -65 52 -110 123 -108 33 2 48
9 70 33 79 88 -26 216 -140 170z m99 -57 c24 -21 23 -58 -2 -83 -55 -55 -129
14 -84 78 18 26 60 29 86 5z"/>
<path d="M778 2565 c-33 -19 -58 -63 -58 -104 0 -39 43 -89 83 -96 101 -19
180 104 114 180 -28 34 -98 43 -139 20z m98 -59 c21 -34 14 -67 -18 -85 -54
-31 -109 31 -74 84 22 34 70 34 92 1z"/>
<path d="M2243 2449 c-29 -33 -53 -69 -53 -80 0 -30 26 -74 54 -93 45 -29 73
-21 136 40 50 47 58 59 49 75 -15 29 -33 23 -73 -25 -44 -54 -70 -65 -97 -40
-10 9 -19 22 -19 29 0 6 22 36 50 67 47 53 48 56 31 72 -9 9 -19 16 -22 16 -2
-1 -28 -28 -56 -61z"/>
<path d="M630 2433 c-17 -6 -100 -84 -100 -94 0 -4 34 -37 76 -74 70 -63 76
-67 92 -51 15 15 15 18 -5 38 l-22 21 29 34 c38 42 38 67 1 104 -29 29 -42 33
-71 22z m40 -58 c11 -13 11 -20 0 -40 -16 -30 -31 -31 -55 -5 -17 19 -17 21 0
40 22 24 38 25 55 5z"/>
<path d="M2392 2268 l-83 -61 20 -21 c20 -19 22 -19 38 -4 15 16 19 15 55 -17
21 -19 47 -35 59 -35 23 0 79 51 79 72 0 16 -69 128 -78 128 -4 -1 -44 -28
-90 -62z m108 -33 c11 -20 11 -27 0 -40 -17 -20 -33 -19 -55 5 -17 19 -17 21
0 40 24 26 39 25 55 -5z"/>
<path d="M434 2215 c-14 -21 -11 -28 43 -113 32 -50 63 -92 70 -92 17 0 27 39
13 55 -15 18 35 96 56 88 14 -5 54 22 54 37 0 4 -30 12 -67 19 -38 6 -87 15
-111 20 -39 8 -45 6 -58 -14z m118 -54 c4 -3 0 -15 -7 -25 -12 -16 -17 -17
-30 -6 -9 7 -21 22 -26 33 -10 17 -8 18 23 12 18 -4 36 -10 40 -14z"/>
<path d="M1415 1286 c-95 -25 -158 -50 -264 -105 -73 -37 -72 -38 27 -72 174
-61 382 -84 529 -60 l71 13 -29 43 c-17 24 -37 67 -45 94 -8 28 -25 63 -38 78
-21 24 -32 28 -92 30 -47 2 -97 -5 -159 -21z"/>
<path d="M825 560 c-9 -17 -13 -35 -10 -40 9 -15 27 -1 21 16 -7 19 12 28 29
14 18 -15 19 -6 5 21 -15 27 -27 24 -45 -11z"/>
<path d="M1996 492 c-3 -6 -1 -14 5 -17 15 -10 25 3 12 16 -7 7 -13 7 -17 1z"/>
<path d="M1880 433 c0 -22 25 -61 34 -52 9 8 -9 62 -22 67 -7 2 -12 -5 -12
-15z"/>
<path d="M1760 400 c0 -5 7 -10 15 -10 8 0 15 5 15 10 0 6 -7 10 -15 10 -8 0
-15 -4 -15 -10z"/>
<path d="M1350 380 c0 -5 5 -10 10 -10 6 0 10 5 10 10 0 6 -4 10 -10 10 -5 0
-10 -4 -10 -10z"/>
<path d="M1655 380 c3 -5 11 -10 16 -10 6 0 7 5 4 10 -3 6 -11 10 -16 10 -6 0
-7 -4 -4 -10z"/>
<path d="M1645 330 c3 -5 10 -10 16 -10 5 0 9 5 9 10 0 6 -7 10 -16 10 -8 0
-12 -4 -9 -10z"/>
</g>
</svg>
