<?xml version="1.0" standalone="no"?>
<!DOCTYPE svg PUBLIC "-//W3C//DTD SVG 20010904//EN"
 "http://www.w3.org/TR/2001/REC-SVG-20010904/DTD/svg10.dtd">
<svg version="1.0" xmlns="http://www.w3.org/2000/svg"
 width="300.000000pt" height="300.000000pt" viewBox="0 0 300.000000 300.000000"
 preserveAspectRatio="xMidYMid meet">
<metadata>
Created by potrace 1.16, written by Peter Selinger 2001-2019
</metadata>
<g transform="translate(0.000000,300.000000) scale(0.100000,-0.100000)"
fill="#000000" stroke="none">
<path d="M1290 2919 c-299 -45 -571 -187 -800 -419 -206 -209 -342 -459 -401
-743 -28 -131 -30 -357 -5 -495 53 -293 189 -545 416 -773 221 -221 432 -338
723 -401 84 -18 134 -21 282 -21 254 0 391 31 610 138 293 142 525 375 678
681 105 209 142 371 140 619 -1 226 -36 385 -128 582 -200 429 -622 756 -1067
828 -100 16 -353 19 -448 4z m500 -47 c420 -97 774 -378 969 -767 53 -105 108
-260 118 -332 l6 -43 -225 0 -225 0 -27 84 c-53 163 -169 331 -299 435 -82 65
-208 131 -317 167 -80 26 -96 28 -260 28 -191 1 -236 -7 -374 -64 -245 -102
-459 -344 -537 -607 l-12 -43 -244 0 -245 0 7 43 c14 82 68 233 121 337 216
421 607 709 1059 779 99 16 387 5 485 -17z m-254 -733 c41 -45 15 -145 -46
-176 -35 -17 -79 2 -96 43 -37 89 82 200 142 133z m329 -161 c241 -190 371
-428 350 -640 -8 -76 -46 -165 -94 -220 -17 -20 -31 -38 -31 -42 0 -3 42 -6
93 -6 85 -1 90 -2 67 -15 -50 -29 -157 -57 -245 -65 -49 -4 -115 -15 -145 -24
-30 -9 -100 -19 -155 -22 -190 -12 -374 27 -567 118 l-107 51 -66 -57 c-36
-32 -65 -54 -65 -49 0 4 16 39 34 78 19 38 34 70 33 71 -68 37 -225 182 -287
264 -29 38 -21 32 48 -32 46 -43 124 -105 174 -138 l91 -61 46 44 c68 67 155
118 308 183 164 69 223 108 241 156 12 32 12 40 -4 73 -19 42 -61 72 -113 81
-47 9 -149 -25 -292 -97 -64 -33 -119 -59 -123 -59 -14 0 81 125 144 189 136
139 243 185 364 157 158 -38 217 -138 276 -469 27 -151 54 -239 85 -274 l24
-28 50 49 c125 123 146 316 55 507 -47 98 -119 194 -213 281 -83 79 -80 78 24
-4z m-810 -154 c8 -4 23 -20 31 -36 39 -75 -42 -161 -116 -123 -83 43 -60 165
31 165 20 0 45 -3 54 -6z"/>
<path d="M1321 2767 c-14 -6 -34 -27 -44 -45 -17 -29 -18 -39 -8 -72 17 -58
54 -83 115 -77 145 13 139 207 -6 207 -18 0 -44 -6 -57 -13z"/>
<path d="M1633 2758 c-33 -16 -57 -69 -49 -110 10 -52 46 -80 109 -86 61 -5
73 5 79 58 3 30 0 35 -19 38 -17 3 -23 -2 -23 -16 0 -47 -66 -46 -89 2 -12 25
-11 31 6 55 25 33 45 37 84 17 24 -12 35 -13 45 -5 20 16 18 23 -15 42 -32 19
-94 21 -128 5z"/>
<path d="M1822 2651 c-37 -102 -38 -107 -16 -115 24 -9 34 -7 34 7 0 6 4 18 9
26 14 22 51 -4 51 -38 0 -20 7 -31 25 -39 40 -19 39 -21 20 45 -4 16 -1 23 15
28 12 4 28 23 36 42 14 31 13 38 -1 60 -9 14 -35 33 -58 43 -85 37 -79 40
-115 -59z"/>
<path d="M2053 2610 c-26 -11 -53 -59 -53 -95 0 -65 52 -110 123 -108 33 2 48
9 70 33 79 88 -26 216 -140 170z"/>
<path d="M778 2565 c-33 -19 -58 -63 -58 -104 0 -39 43 -89 83 -96 101 -19
180 104 114 180 -28 34 -98 43 -139 20z"/>
<path d="M2243 2449 c-29 -33 -53 -69 -53 -80 0 -30 26 -74 54 -93 45 -29 73
-21 136 40 50 47 58 59 49 75 -15 29 -33 23 -73 -25 -44 -54 -70 -65 -97 -40
-10 9 -19 22 -19 29 0 6 22 36 50 67 47 53 48 56 31 72 -9 9 -19 16 -22 16 -2
-1 -28 -28 -56 -61z"/>
<path d="M630 2433 c-17 -6 -100 -84 -100 -94 0 -4 34 -37 76 -74 70 -63 76
-67 92 -51 15 15 15 18 -5 38 l-22 21 29 34 c38 42 38 67 1 104 -29 29 -42 33
-71 22z"/>
<path d="M2392 2268 l-83 -61 20 -21 c20 -19 22 -19 38 -4 15 16 19 15 55 -17
21 -19 47 -35 59 -35 23 0 79 51 79 72 0 16 -69 128 -78 128 -4 -1 -44 -28
-90 -62z"/>
<path d="M434 2215 c-14 -21 -11 -28 43 -113 32 -50 63 -92 70 -92 17 0 27 39
13 55 -15 18 35 96 56 88 14 -5 54 22 54 37 0 4 -30 12 -67 19 -38 6 -87 15
-111 20 -39 8 -45 6 -58 -14z"/>
<path d="M1415 1286 c-95 -25 -158 -50 -264 -105 -73 -37 -72 -38 27 -72 174
-61 382 -84 529 -60 l71 13 -29 43 c-17 24 -37 67 -45 94 -8 28 -25 63 -38 78
-21 24 -32 28 -92 30 -47 2 -97 -5 -159 -21z"/>
</g>
</svg>
